<?xml version="1.0" encoding="iso-8859-1"?>
<!-- Uploaded to: SVG Repo, www.svgrepo.com, Generator: SVG Repo Mixer Tools -->
<svg version="1.1" id="Layer_1" xmlns="http://www.w3.org/2000/svg" xmlns:xlink="http://www.w3.org/1999/xlink" 
	 viewBox="0 0 480 480" xml:space="preserve">
<path style="fill:#E06975;" d="M408,112H72c-8.84,0-16,7.16-16,16v24h368v-24C424,119.16,416.84,112,408,112z"/>
<path style="fill:#D84452;" d="M440,376H240V152h184c8.84,0,16,7.16,16,16V376z"/>
<g>
	<rect id="SVGCleanerId_0" x="40" y="304" style="fill:#F5BA46;" width="200" height="72"/>
</g>
<g>
	<rect id="SVGCleanerId_0_1_" x="40" y="304" style="fill:#F5BA46;" width="200" height="72"/>
</g>
<g>
	<rect id="SVGCleanerId_0_2_" x="40" y="304" style="fill:#F5BA46;" width="200" height="72"/>
</g>
<g>
	<rect id="SVGCleanerId_0_3_" x="40" y="304" style="fill:#F5BA46;" width="200" height="72"/>
</g>
<path d="M240,384H40c-4.424,0-8-3.576-8-8v-72c0-4.424,3.576-8,8-8h200c4.424,0,8,3.576,8,8v72C248,380.424,244.424,384,240,384z
	 M48,368h184v-56H48V368z"/>
<path id="SVGCleanerId_1" d="M240,384H40c-4.424,0-8-3.576-8-8v-72c0-4.424,3.576-8,8-8h200c4.424,0,8,3.576,8,8v72
	C248,380.424,244.424,384,240,384z M48,368h184v-56H48V368z"/>
<g>
	<path id="SVGCleanerId_1_1_" d="M240,384H40c-4.424,0-8-3.576-8-8v-72c0-4.424,3.576-8,8-8h200c4.424,0,8,3.576,8,8v72
		C248,380.424,244.424,384,240,384z M48,368h184v-56H48V368z"/>
</g>
<path style="fill:#D84452;" d="M240,304H40V168c0-8.84,7.16-16,16-16h184V304z"/>
<path style="fill:#E06975;" d="M424,472H56c-8.84,0-16-7.16-16-16v-80h400v80C440,464.84,432.84,472,424,472z"/>
<path d="M432,145.472V128c0-13.232-10.768-24-24-24H72c-13.232,0-24,10.768-24,24v17.472c-9.288,3.312-16,12.112-16,22.528v288
	c0,13.232,10.768,24,24,24h368c13.232,0,24-10.768,24-24V168C448,157.584,441.288,148.784,432,145.472z M432,168v200H248V160h176
	C428.416,160,432,163.584,432,168z M64,128c0-4.416,3.584-8,8-8h336c4.416,0,8,3.584,8,8v16H240H64V128z M48,168
	c0-4.416,3.584-8,8-8h176v136H48V168z M48,312h184v56H48V312z M432,456c0,4.416-3.584,8-8,8H56c-4.416,0-8-3.584-8-8v-72h192h192
	V456z"/>
<path d="M329.432,424h-248c-4.424,0-8-3.576-8-8s3.576-8,8-8h248c4.424,0,8,3.576,8,8S333.848,424,329.432,424z"/>
<path style="fill:#F8F8FA;" d="M192,304H88V24c0-8.84,7.16-16,16-16h72c8.84,0,16,7.16,16,16V304z"/>
<path d="M192,312H88c-4.424,0-8-3.576-8-8V24c0-13.232,10.768-24,24-24h72c13.232,0,24,10.768,24,24v280
	C200,308.424,196.424,312,192,312z M96,296h88V24c0-4.416-3.584-8-8-8h-72c-4.416,0-8,3.584-8,8V296z"/>
<rect x="336" y="112" style="fill:#F5BA46;" width="40" height="40"/>
<path style="fill:#F9D690;" d="M425.424,64h-144V24c0-8.84,7.16-16,16-16h112c8.84,0,16,7.16,16,16V64z"/>
<path style="fill:#F5BA46;" d="M409.424,112h-112c-8.84,0-16-7.16-16-16V64h144v32C425.424,104.84,418.264,112,409.424,112z"/>
<path d="M409.432,0h-112C284.192,0,272,10.768,272,24v40v32c0,13.232,12.192,24,25.432,24H328v32c0,4.424,5.008,8,9.432,8h40
	c4.416,0,6.568-3.576,6.568-8v-32h25.432C422.664,120,432,109.232,432,96V64V24C432,10.768,422.664,0,409.432,0z M288,24
	c0-4.416,5.016-8,9.432-8h112c4.408,0,6.568,3.584,6.568,8v32H288V24z M368,144h-24v-24h24V144z M416,96c0,4.416-2.16,8-6.568,8h-32
	h-40h-40c-4.416,0-9.432-3.584-9.432-8V72h128V96z"/>
<path d="M161.432,48h-40c-4.424,0-8-3.576-8-8s3.576-8,8-8h40c4.424,0,8,3.576,8,8S165.848,48,161.432,48z"/>
<path d="M161.432,80h-40c-4.424,0-8-3.576-8-8s3.576-8,8-8h40c4.424,0,8,3.576,8,8S165.848,80,161.432,80z"/>
<path d="M161.432,112h-40c-4.424,0-8-3.576-8-8s3.576-8,8-8h40c4.424,0,8,3.576,8,8S165.848,112,161.432,112z"/>
<path d="M161.432,144h-40c-4.424,0-8-3.576-8-8s3.576-8,8-8h40c4.424,0,8,3.576,8,8S165.848,144,161.432,144z"/>
<path d="M161.432,176h-40c-4.424,0-8-3.576-8-8s3.576-8,8-8h40c4.424,0,8,3.576,8,8S165.848,176,161.432,176z"/>
<path d="M161.432,208h-40c-4.424,0-8-3.576-8-8s3.576-8,8-8h40c4.424,0,8,3.576,8,8S165.848,208,161.432,208z"/>
<path d="M161.432,240h-40c-4.424,0-8-3.576-8-8s3.576-8,8-8h40c4.424,0,8,3.576,8,8S165.848,240,161.432,240z"/>
<path d="M145.432,272h-24c-4.424,0-8-3.576-8-8s3.576-8,8-8h24c4.424,0,8,3.576,8,8S149.848,272,145.432,272z"/>
<rect x="273.44" y="184" style="fill:#F8F8FA;" width="136" height="72"/>
<rect x="273.44" y="256" style="fill:#F2F2F2;" width="136" height="72"/>
<path d="M409.432,176h-136c-4.424,0-9.432,3.576-9.432,8v144c0,4.424,5.008,8,9.432,8h136c4.416,0,6.568-3.576,6.568-8V184
	C416,179.576,413.848,176,409.432,176z M280,192h120v56H280V192z M400,320H280v-56h120V320z"/>
<circle style="fill:#F2F2F2;" cx="384" cy="424" r="16"/>
<path d="M384,448c-13.232,0-24-10.768-24-24s10.768-24,24-24s24,10.768,24,24S397.232,448,384,448z M384,416c-4.416,0-8,3.584-8,8
	s3.584,8,8,8s8-3.584,8-8S388.416,416,384,416z"/>
<circle cx="68" cy="340" r="4"/>
<circle cx="84" cy="340" r="4"/>
<circle cx="100" cy="340" r="4"/>
<circle cx="116" cy="340" r="4"/>
<circle cx="132" cy="340" r="4"/>
<circle cx="148" cy="340" r="4"/>
<circle cx="164" cy="340" r="4"/>
<circle cx="180" cy="340" r="4"/>
<circle cx="196" cy="340" r="4"/>
<circle cx="212" cy="340" r="4"/>
</svg>